<?xml version="1.0" standalone="no"?><!DOCTYPE svg PUBLIC "-//W3C//DTD SVG 1.1//EN" "http://www.w3.org/Graphics/SVG/1.1/DTD/svg11.dtd"><svg t="1660454735669" class="icon" viewBox="0 0 1024 1024" version="1.1" xmlns="http://www.w3.org/2000/svg" p-id="2541" xmlns:xlink="http://www.w3.org/1999/xlink" width="500" height="500"><defs><style type="text/css">@font-face { font-family: feedback-iconfont; src: url("//at.alicdn.com/t/font_1031158_u69w8yhxdu.woff2?t=1630033759944") format("woff2"), url("//at.alicdn.com/t/font_1031158_u69w8yhxdu.woff?t=1630033759944") format("woff"), url("//at.alicdn.com/t/font_1031158_u69w8yhxdu.ttf?t=1630033759944") format("truetype"); }
</style></defs><path d="M512 682.666667a170.666667 170.666667 0 1 1 170.666667-170.666667 170.666667 170.666667 0 0 1-170.666667 170.666667z m0-256a85.333333 85.333333 0 1 0 85.333333 85.333333 85.333333 85.333333 0 0 0-85.333333-85.333333z m21.333333 512h-42.666666A106.666667 106.666667 0 0 1 384 832a4.565333 4.565333 0 0 0-2.901333-4.650667c-2.090667-1.024-4.522667 1.194667-4.522667 1.194667a107.093333 107.093333 0 0 1-151.168 0.384l-30.122667-30.165333a106.666667 106.666667 0 0 1 0.256-151.04 4.266667 4.266667 0 0 0 0.853334-5.248A5.546667 5.546667 0 0 0 192 640 106.666667 106.666667 0 0 1 85.333333 533.333333v-42.666666A106.666667 106.666667 0 0 1 192 384a4.821333 4.821333 0 0 0 4.608-2.730667 3.712 3.712 0 0 0-0.938667-4.48 107.008 107.008 0 0 1-0.512-151.424l30.208-30.250666a106.965333 106.965333 0 0 1 150.826667 0 4.266667 4.266667 0 0 0 5.376 1.365333C384 195.413333 384 192 384 192A106.666667 106.666667 0 0 1 490.666667 85.333333h42.666666A106.666667 106.666667 0 0 1 640 192s-0.213333 4.266667 2.133333 5.12a5.248 5.248 0 0 0 5.034667-1.066667 106.112 106.112 0 0 1 75.989333-32 105.813333 105.813333 0 0 1 75.434667 31.232l29.866667 30.08a106.666667 106.666667 0 0 1 0 150.826667c-0.597333 0.896-3.072 2.730667-2.090667 5.290667a3.669333 3.669333 0 0 0 4.266667 2.517333A107.050667 107.050667 0 0 1 938.666667 490.666667v42.666666a106.666667 106.666667 0 0 1-106.666667 106.666667c-2.56 0-4.864 0-5.674667 2.090667s-0.384 3.413333 1.706667 5.162666a106.666667 106.666667 0 0 1 0.682667 151.509334l-29.866667 30.122666a106.965333 106.965333 0 0 1-150.826667 0s-2.389333-2.901333-4.778666-2.048a4.266667 4.266667 0 0 0-3.029334 3.925334A107.050667 107.050667 0 0 1 533.333333 938.666667z m-120.704-190.634667l1.877334 0.768A89.6 89.6 0 0 1 469.333333 830.805333a21.674667 21.674667 0 0 0 21.333334 22.528h42.666666a21.333333 21.333333 0 0 0 21.333334-21.333333 90.624 90.624 0 0 1 55.893333-83.669333 88.917333 88.917333 0 0 1 96.64 19.242666 21.632 21.632 0 0 0 31.104 0.938667l30.08-30.08a21.333333 21.333333 0 0 0 0-30.208 90.666667 90.666667 0 0 1-20.266667-96.64l0.768-2.005333 0.256-0.597334A88.490667 88.490667 0 0 1 830.890667 554.666667a21.632 21.632 0 0 0 22.442666-21.333334v-42.666666a21.333333 21.333333 0 0 0-21.333333-21.333334 89.002667 89.002667 0 0 1-83.285333-55.082666l-0.810667-1.962667a88.149333 88.149333 0 0 1 19.754667-95.530667 21.674667 21.674667 0 0 0 0.853333-31.061333l-30.08-29.866667a21.333333 21.333333 0 0 0-15.104-6.229333 21.333333 21.333333 0 0 0-15.104 6.272 90.794667 90.794667 0 0 1-98.133333 19.797333A88.533333 88.533333 0 0 1 554.666667 193.109333 21.632 21.632 0 0 0 533.333333 170.666667h-42.666666a21.333333 21.333333 0 0 0-21.333334 21.333333 89.6 89.6 0 0 1-152.533333 64.426667 21.589333 21.589333 0 0 0-30.933333-0.938667l-30.378667 30.378667a21.333333 21.333333 0 0 0 0 30.165333 89.130667 89.130667 0 0 1 20.138667 97.450667 42.965333 42.965333 0 0 1-4.266667 8.064A89.856 89.856 0 0 1 193.194667 469.333333a21.674667 21.674667 0 0 0-22.528 21.333334v42.666666a21.333333 21.333333 0 0 0 21.333333 21.333334 88.874667 88.874667 0 0 1 82.901333 54.314666l0.256 0.597334a29.056 29.056 0 0 1 1.024 2.688 89.6 89.6 0 0 1-19.968 95.402666 21.802667 21.802667 0 0 0-6.826666 15.616 21.077333 21.077333 0 0 0 6.229333 15.146667l30.122667 30.122667a21.333333 21.333333 0 0 0 30.165333 0 89.258667 89.258667 0 0 1 96.725333-20.522667zM827.733333 382.293333v0.256z" fill="#41416E" p-id="2542"></path></svg>